<svg width="157" height="40" viewBox="0 0 157 40" fill="none" xmlns="http://www.w3.org/2000/svg">
<path d="M25.882 18.3637C25.882 20.8183 25.4388 22.9395 24.5525 24.7274C23.6661 26.5152 22.4502 27.894 20.9047 28.8637C19.3593 29.8334 17.5941 30.3183 15.6093 30.3183C13.6244 30.3183 11.8593 29.8334 10.3138 28.8637C8.76837 27.894 7.55246 26.5152 6.66609 24.7274C5.77973 22.9395 5.33655 20.8183 5.33655 18.3637C5.33655 15.9092 5.77973 13.788 6.66609 12.0001C7.55246 10.2122 8.76837 8.83342 10.3138 7.86373C11.8593 6.89403 13.6244 6.40918 15.6093 6.40918C17.5941 6.40918 19.3593 6.89403 20.9047 7.86373C22.4502 8.83342 23.6661 10.2122 24.5525 12.0001C25.4388 13.788 25.882 15.9092 25.882 18.3637ZM23.1547 18.3637C23.1547 16.3486 22.8176 14.6478 22.1434 13.2615C21.4767 11.8751 20.5714 10.8258 19.4275 10.1137C18.2911 9.4016 17.0184 9.04554 15.6093 9.04554C14.2002 9.04554 12.9237 9.4016 11.7797 10.1137C10.6434 10.8258 9.73806 11.8751 9.06382 13.2615C8.39715 14.6478 8.06382 16.3486 8.06382 18.3637C8.06382 20.3789 8.39715 22.0796 9.06382 23.466C9.73806 24.8524 10.6434 25.9016 11.7797 26.6137C12.9237 27.3258 14.2002 27.6819 15.6093 27.6819C17.0184 27.6819 18.2911 27.3258 19.4275 26.6137C20.5714 25.9016 21.4767 24.8524 22.1434 23.466C22.8176 22.0796 23.1547 20.3789 23.1547 18.3637Z" fill="#101010"/>
<path d="M15.5779 8.78711C17.0787 8.78713 18.4346 9.15349 19.645 9.88784C20.8635 10.6222 21.8277 11.705 22.5378 13.1346C23.2558 14.5641 23.6143 16.3178 23.6144 18.3956C23.6144 20.4736 23.2559 22.2279 22.5378 23.6575C21.8278 25.087 20.8633 26.1689 19.645 26.9033C18.4346 27.6376 17.0787 28.005 15.5779 28.005C14.0769 28.005 12.7167 27.6377 11.4982 26.9033C10.2881 26.1689 9.32351 25.087 8.60544 23.6575C7.89543 22.2279 7.54028 20.4735 7.54028 18.3956C7.54034 16.3178 7.89551 14.5641 8.60544 13.1346C9.32359 11.705 10.2879 10.6222 11.4982 9.88784C12.7167 9.15347 14.0769 8.78711 15.5779 8.78711Z" fill="white"/>
<ellipse cx="18.5" cy="17.5" rx="1.5" ry="2.5" fill="#101010"/>
<ellipse cx="12.5" cy="17.5" rx="1.5" ry="2.5" fill="#101010"/>
<path d="M6.79763 18.9973C6.79763 20.9973 8.7276 24.0077 13.2277 24.0034" stroke="#101010" stroke-width="1.5"/>
<rect x="11.2275" y="22.5049" width="4" height="2.7998" rx="1.3999" fill="#101010"/>
<rect x="4" y="14" width="3" height="8" rx="1.5" fill="#101010"/>
<rect x="24" y="14" width="3" height="8" rx="1.5" fill="#101010"/>
<path d="M29.4545 35.5455V11.5455H32.0454V14.3182H32.3636C32.5606 14.0152 32.8333 13.6288 33.1818 13.1591C33.5378 12.6818 34.0454 12.2576 34.7045 11.8864C35.3712 11.5076 36.2727 11.3182 37.4091 11.3182C38.8788 11.3182 40.1742 11.6856 41.2954 12.4205C42.4166 13.1553 43.2916 14.197 43.9204 15.5455C44.5492 16.8939 44.8636 18.4848 44.8636 20.3182C44.8636 22.1667 44.5492 23.7689 43.9204 25.125C43.2916 26.4735 42.4204 27.5189 41.3068 28.2614C40.1932 28.9962 38.9091 29.3636 37.4545 29.3636C36.3333 29.3636 35.4356 29.178 34.7613 28.8068C34.0871 28.428 33.5682 28 33.2045 27.5227C32.8409 27.0379 32.5606 26.6364 32.3636 26.3182H32.1363V35.5455H29.4545ZM32.0909 20.2727C32.0909 21.5909 32.2841 22.7538 32.6704 23.7614C33.0568 24.7614 33.6212 25.5455 34.3636 26.1136C35.106 26.6742 36.0151 26.9545 37.0909 26.9545C38.2121 26.9545 39.1477 26.6591 39.8977 26.0682C40.6553 25.4697 41.2235 24.6667 41.6022 23.6591C41.9886 22.6439 42.1818 21.5152 42.1818 20.2727C42.1818 19.0455 41.9924 17.9394 41.6136 16.9545C41.2424 15.9621 40.678 15.178 39.9204 14.6023C39.1704 14.0189 38.2272 13.7273 37.0909 13.7273C36 13.7273 35.0833 14.0038 34.3409 14.5568C33.5985 15.1023 33.0378 15.8674 32.6591 16.8523C32.2803 17.8295 32.0909 18.9697 32.0909 20.2727ZM54.9927 29.3636C53.3109 29.3636 51.8601 28.9924 50.6404 28.25C49.4283 27.5 48.4927 26.4545 47.8336 25.1136C47.1821 23.7652 46.8563 22.197 46.8563 20.4091C46.8563 18.6212 47.1821 17.0455 47.8336 15.6818C48.4927 14.3106 49.4094 13.2424 50.5836 12.4773C51.7654 11.7045 53.1442 11.3182 54.72 11.3182C55.6291 11.3182 56.5268 11.4697 57.4132 11.7727C58.2995 12.0758 59.1063 12.5682 59.8336 13.25C60.5609 13.9242 61.1404 14.8182 61.5722 15.9318C62.0041 17.0455 62.22 18.4167 62.22 20.0455V21.1818H48.7654V18.8636H59.4927C59.4927 17.8788 59.2957 17 58.9018 16.2273C58.5154 15.4545 57.9624 14.8447 57.2427 14.3977C56.5306 13.9508 55.6897 13.7273 54.72 13.7273C53.6518 13.7273 52.7275 13.9924 51.9472 14.5227C51.1745 15.0455 50.5798 15.7273 50.1632 16.5682C49.7465 17.4091 49.5382 18.3106 49.5382 19.2727V20.8182C49.5382 22.1364 49.7654 23.2538 50.22 24.1705C50.6821 25.0795 51.3222 25.7727 52.1404 26.25C52.9586 26.7197 53.9094 26.9545 54.9927 26.9545C55.6972 26.9545 56.3336 26.8561 56.9018 26.6591C57.4775 26.4545 57.9738 26.1515 58.3904 25.75C58.8071 25.3409 59.1291 24.8333 59.3563 24.2273L61.9472 24.9545C61.6745 25.8333 61.2162 26.6061 60.5722 27.2727C59.9283 27.9318 59.1328 28.447 58.1859 28.8182C57.2389 29.1818 56.1745 29.3636 54.9927 29.3636ZM67.3813 18.5V29H64.6995V11.5455H67.2904V14.2727H67.5177C67.9268 13.3864 68.548 12.6742 69.3813 12.1364C70.2147 11.5909 71.2904 11.3182 72.6086 11.3182C73.7904 11.3182 74.8245 11.5606 75.7109 12.0455C76.5972 12.5227 77.2866 13.25 77.7791 14.2273C78.2715 15.197 78.5177 16.4242 78.5177 17.9091V29H75.8359V18.0909C75.8359 16.7197 75.4798 15.6515 74.7677 14.8864C74.0556 14.1136 73.0783 13.7273 71.8359 13.7273C70.9798 13.7273 70.2147 13.9129 69.5404 14.2841C68.8738 14.6553 68.3472 15.197 67.9609 15.9091C67.5745 16.6212 67.3813 17.4848 67.3813 18.5ZM81.2219 29V5.72727H84.0401V16.0909H96.4492V5.72727H99.2674V29H96.4492V18.5909H84.0401V29H81.2219ZM109.624 29.3636C107.942 29.3636 106.491 28.9924 105.272 28.25C104.06 27.5 103.124 26.4545 102.465 25.1136C101.813 23.7652 101.488 22.197 101.488 20.4091C101.488 18.6212 101.813 17.0455 102.465 15.6818C103.124 14.3106 104.041 13.2424 105.215 12.4773C106.397 11.7045 107.775 11.3182 109.351 11.3182C110.26 11.3182 111.158 11.4697 112.044 11.7727C112.931 12.0758 113.738 12.5682 114.465 13.25C115.192 13.9242 115.772 14.8182 116.203 15.9318C116.635 17.0455 116.851 18.4167 116.851 20.0455V21.1818H103.397V18.8636H114.124C114.124 17.8788 113.927 17 113.533 16.2273C113.147 15.4545 112.594 14.8447 111.874 14.3977C111.162 13.9508 110.321 13.7273 109.351 13.7273C108.283 13.7273 107.359 13.9924 106.578 14.5227C105.806 15.0455 105.211 15.7273 104.794 16.5682C104.378 17.4091 104.169 18.3106 104.169 19.2727V20.8182C104.169 22.1364 104.397 23.2538 104.851 24.1705C105.313 25.0795 105.953 25.7727 106.772 26.25C107.59 26.7197 108.541 26.9545 109.624 26.9545C110.328 26.9545 110.965 26.8561 111.533 26.6591C112.109 26.4545 112.605 26.1515 113.022 25.75C113.438 25.3409 113.76 24.8333 113.988 24.2273L116.578 24.9545C116.306 25.8333 115.847 26.6061 115.203 27.2727C114.56 27.9318 113.764 28.447 112.817 28.8182C111.87 29.1818 110.806 29.3636 109.624 29.3636ZM122.333 5.72727V29H119.651V5.72727H122.333ZM125.645 35.5455V11.5455H128.235V14.3182H128.554C128.751 14.0152 129.023 13.6288 129.372 13.1591C129.728 12.6818 130.235 12.2576 130.895 11.8864C131.561 11.5076 132.463 11.3182 133.599 11.3182C135.069 11.3182 136.364 11.6856 137.485 12.4205C138.607 13.1553 139.482 14.197 140.11 15.5455C140.739 16.8939 141.054 18.4848 141.054 20.3182C141.054 22.1667 140.739 23.7689 140.11 25.125C139.482 26.4735 138.61 27.5189 137.497 28.2614C136.383 28.9962 135.099 29.3636 133.645 29.3636C132.523 29.3636 131.626 29.178 130.951 28.8068C130.277 28.428 129.758 28 129.395 27.5227C129.031 27.0379 128.751 26.6364 128.554 26.3182H128.326V35.5455H125.645ZM128.281 20.2727C128.281 21.5909 128.474 22.7538 128.86 23.7614C129.247 24.7614 129.811 25.5455 130.554 26.1136C131.296 26.6742 132.205 26.9545 133.281 26.9545C134.402 26.9545 135.338 26.6591 136.088 26.0682C136.845 25.4697 137.413 24.6667 137.792 23.6591C138.179 22.6439 138.372 21.5152 138.372 20.2727C138.372 19.0455 138.182 17.9394 137.804 16.9545C137.432 15.9621 136.868 15.178 136.11 14.6023C135.36 14.0189 134.417 13.7273 133.281 13.7273C132.19 13.7273 131.273 14.0038 130.531 14.5568C129.788 15.1023 129.228 15.8674 128.849 16.8523C128.47 17.8295 128.281 18.9697 128.281 20.2727Z" fill="#101010"/>
</svg>
