<svg width="157" height="40" viewBox="0 0 157 40" fill="none" xmlns="http://www.w3.org/2000/svg">
<path d="M24.0455 16.3636C24.0455 18.9545 23.5417 21.1402 22.5341 22.9205C21.5265 24.6932 20.1667 26.0379 18.4545 26.9545C16.7424 27.8636 14.8333 28.3182 12.7273 28.3182C10.6061 28.3182 8.68939 27.8598 6.97727 26.9432C5.27273 26.0189 3.91667 24.6705 2.90909 22.8977C1.90909 21.1174 1.40909 18.9394 1.40909 16.3636C1.40909 13.7727 1.90909 11.5909 2.90909 9.81818C3.91667 8.03788 5.27273 6.69318 6.97727 5.78409C8.68939 4.86742 10.6061 4.40909 12.7273 4.40909C14.8333 4.40909 16.7424 4.86742 18.4545 5.78409C20.1667 6.69318 21.5265 8.03788 22.5341 9.81818C23.5417 11.5909 24.0455 13.7727 24.0455 16.3636ZM17.5455 16.3636C17.5455 14.9697 17.3598 13.7955 16.9886 12.8409C16.625 11.8788 16.0833 11.1515 15.3636 10.6591C14.6515 10.1591 13.7727 9.90909 12.7273 9.90909C11.6818 9.90909 10.7992 10.1591 10.0795 10.6591C9.36742 11.1515 8.82576 11.8788 8.45455 12.8409C8.09091 13.7955 7.90909 14.9697 7.90909 16.3636C7.90909 17.7576 8.09091 18.9356 8.45455 19.8977C8.82576 20.8523 9.36742 21.5795 10.0795 22.0795C10.7992 22.572 11.6818 22.8182 12.7273 22.8182C13.7727 22.8182 14.6515 22.572 15.3636 22.0795C16.0833 21.5795 16.625 20.8523 16.9886 19.8977C17.3598 18.9356 17.5455 17.7576 17.5455 16.3636ZM26.0997 34.5455V10.5455H32.3269V13.5909H32.4633C32.6906 13 33.0239 12.4583 33.4633 11.9659C33.9027 11.4659 34.4481 11.0682 35.0997 10.7727C35.7512 10.4697 36.5088 10.3182 37.3724 10.3182C38.5239 10.3182 39.6186 10.625 40.6565 11.2386C41.7019 11.8523 42.5504 12.8182 43.2019 14.1364C43.861 15.4545 44.1906 17.1667 44.1906 19.2727C44.1906 21.2879 43.8762 22.9583 43.2474 24.2841C42.6262 25.6098 41.7928 26.5985 40.7474 27.25C39.7095 27.9015 38.5694 28.2273 37.3269 28.2273C36.5088 28.2273 35.7777 28.0947 35.1338 27.8295C34.4974 27.5568 33.9519 27.1894 33.4974 26.7273C33.0504 26.2576 32.7057 25.7273 32.4633 25.1364H32.3724V34.5455H26.0997ZM32.236 19.2727C32.236 20.1212 32.3459 20.8561 32.5656 21.4773C32.7928 22.0909 33.111 22.5682 33.5201 22.9091C33.9368 23.2424 34.433 23.4091 35.0088 23.4091C35.5845 23.4091 36.0731 23.2462 36.4747 22.9205C36.8838 22.5871 37.1944 22.1136 37.4065 21.5C37.6262 20.8788 37.736 20.1364 37.736 19.2727C37.736 18.4091 37.6262 17.6705 37.4065 17.0568C37.1944 16.4356 36.8838 15.9621 36.4747 15.6364C36.0731 15.303 35.5845 15.1364 35.0088 15.1364C34.433 15.1364 33.9368 15.303 33.5201 15.6364C33.111 15.9621 32.7928 16.4356 32.5656 17.0568C32.3459 17.6705 32.236 18.4091 32.236 19.2727ZM54.862 28.3182C52.9984 28.3182 51.3923 27.9621 50.0439 27.25C48.703 26.5303 47.6689 25.5 46.9416 24.1591C46.2219 22.8106 45.862 21.197 45.862 19.3182C45.862 17.5152 46.2257 15.9394 46.953 14.5909C47.6802 13.2424 48.7067 12.1932 50.0325 11.4432C51.3583 10.6932 52.9227 10.3182 54.7257 10.3182C56.0439 10.3182 57.237 10.5227 58.3052 10.9318C59.3734 11.3409 60.2863 11.9356 61.0439 12.7159C61.8014 13.4886 62.3848 14.428 62.7939 15.5341C63.203 16.6402 63.4075 17.8864 63.4075 19.2727V20.7273H47.8166V17.2727H57.6348C57.6272 16.7727 57.4984 16.3333 57.2484 15.9545C57.006 15.5682 56.6764 15.2689 56.2598 15.0568C55.8507 14.8371 55.3848 14.7273 54.862 14.7273C54.3545 14.7273 53.8886 14.8371 53.4643 15.0568C53.0401 15.2689 52.6992 15.5644 52.4416 15.9432C52.1916 16.322 52.059 16.7652 52.0439 17.2727V21C52.0439 21.5606 52.1613 22.0606 52.3961 22.5C52.631 22.9394 52.9681 23.2841 53.4075 23.5341C53.8469 23.7841 54.3772 23.9091 54.9984 23.9091C55.4302 23.9091 55.8242 23.8485 56.1802 23.7273C56.5439 23.6061 56.8545 23.4318 57.112 23.2045C57.3696 22.9697 57.559 22.6894 57.6802 22.3636H63.4075C63.2105 23.5758 62.7446 24.6288 62.0098 25.5227C61.2749 26.4091 60.3014 27.0985 59.0893 27.5909C57.8848 28.0758 56.4757 28.3182 54.862 28.3182ZM71.9199 18.1818V28H65.6472V10.5455H71.6017V13.8636H71.7835C72.1623 12.7576 72.829 11.8902 73.7835 11.2614C74.7456 10.6326 75.8669 10.3182 77.1472 10.3182C78.382 10.3182 79.454 10.6023 80.3631 11.1705C81.2797 11.7311 81.9881 12.5038 82.4881 13.4886C82.9956 14.4735 83.2456 15.5985 83.2381 16.8636V28H76.9653V18.1818C76.9729 17.3182 76.7532 16.6402 76.3063 16.1477C75.8669 15.6553 75.2532 15.4091 74.4653 15.4091C73.9502 15.4091 73.4994 15.5227 73.1131 15.75C72.7343 15.9697 72.4426 16.2879 72.2381 16.7045C72.0335 17.1136 71.9275 17.6061 71.9199 18.1818ZM85.9238 28V4.72727H92.2419V13.8182H100.606V4.72727H106.924V28H100.606V18.9091H92.2419V28H85.9238ZM117.738 28.3182C115.875 28.3182 114.269 27.9621 112.92 27.25C111.579 26.5303 110.545 25.5 109.818 24.1591C109.098 22.8106 108.738 21.197 108.738 19.3182C108.738 17.5152 109.102 15.9394 109.829 14.5909C110.556 13.2424 111.583 12.1932 112.909 11.4432C114.235 10.6932 115.799 10.3182 117.602 10.3182C118.92 10.3182 120.113 10.5227 121.181 10.9318C122.25 11.3409 123.163 11.9356 123.92 12.7159C124.678 13.4886 125.261 14.428 125.67 15.5341C126.079 16.6402 126.284 17.8864 126.284 19.2727V20.7273H110.693V17.2727H120.511C120.503 16.7727 120.375 16.3333 120.125 15.9545C119.882 15.5682 119.553 15.2689 119.136 15.0568C118.727 14.8371 118.261 14.7273 117.738 14.7273C117.231 14.7273 116.765 14.8371 116.341 15.0568C115.916 15.2689 115.575 15.5644 115.318 15.9432C115.068 16.322 114.935 16.7652 114.92 17.2727V21C114.92 21.5606 115.038 22.0606 115.272 22.5C115.507 22.9394 115.844 23.2841 116.284 23.5341C116.723 23.7841 117.253 23.9091 117.875 23.9091C118.306 23.9091 118.7 23.8485 119.056 23.7273C119.42 23.6061 119.731 23.4318 119.988 23.2045C120.246 22.9697 120.435 22.6894 120.556 22.3636H126.284C126.087 23.5758 125.621 24.6288 124.886 25.5227C124.151 26.4091 123.178 27.0985 121.966 27.5909C120.761 28.0758 119.352 28.3182 117.738 28.3182ZM134.796 4.72727V28H128.523V4.72727H134.796ZM137.032 34.5455V10.5455H143.259V13.5909H143.396C143.623 13 143.956 12.4583 144.396 11.9659C144.835 11.4659 145.381 11.0682 146.032 10.7727C146.684 10.4697 147.441 10.3182 148.305 10.3182C149.456 10.3182 150.551 10.625 151.589 11.2386C152.634 11.8523 153.483 12.8182 154.134 14.1364C154.794 15.4545 155.123 17.1667 155.123 19.2727C155.123 21.2879 154.809 22.9583 154.18 24.2841C153.559 25.6098 152.725 26.5985 151.68 27.25C150.642 27.9015 149.502 28.2273 148.259 28.2273C147.441 28.2273 146.71 28.0947 146.066 27.8295C145.43 27.5568 144.884 27.1894 144.43 26.7273C143.983 26.2576 143.638 25.7273 143.396 25.1364H143.305V34.5455H137.032ZM143.169 19.2727C143.169 20.1212 143.278 20.8561 143.498 21.4773C143.725 22.0909 144.044 22.5682 144.453 22.9091C144.869 23.2424 145.365 23.4091 145.941 23.4091C146.517 23.4091 147.006 23.2462 147.407 22.9205C147.816 22.5871 148.127 22.1136 148.339 21.5C148.559 20.8788 148.669 20.1364 148.669 19.2727C148.669 18.4091 148.559 17.6705 148.339 17.0568C148.127 16.4356 147.816 15.9621 147.407 15.6364C147.006 15.303 146.517 15.1364 145.941 15.1364C145.365 15.1364 144.869 15.303 144.453 15.6364C144.044 15.9621 143.725 16.4356 143.498 17.0568C143.278 17.6705 143.169 18.4091 143.169 19.2727Z" fill="#101010"/>
</svg>
