<svg width="96" height="96" viewBox="0 0 96 96" fill="none" xmlns="http://www.w3.org/2000/svg">
<rect width="96" height="96" rx="16" fill="#F5F5F5"/>
<circle cx="46.3333" cy="46.3333" r="28.3333" fill="#D8D9DC"/>
<path fill-rule="evenodd" clip-rule="evenodd" d="M35 22L46.2852 35.1634L48.5632 27.5692C48.7182 27.0524 49.1389 26.6586 49.6649 26.5381C50.1909 26.4176 50.7411 26.5889 51.1057 26.9866L60.9999 40.0002L50.6782 30.9599L48.4371 38.4309C48.2854 38.9366 47.879 39.3253 47.3671 39.4544C46.8551 39.5834 46.313 39.4339 45.9397 39.0605L31.9393 25.0605L35 22Z" fill="#F5F5F5"/>
<path fill-rule="evenodd" clip-rule="evenodd" d="M48.8442 59.526L54 54L46.1282 57.7793C45.5592 58.1857 45.3465 58.9314 45.6154 59.5768L50.6154 71.5768C50.934 72.3415 51.8122 72.7031 52.5769 72.3845C53.3416 72.0659 53.7032 71.1877 53.3846 70.423L48.8442 59.526Z" fill="#F5F5F5"/>
<path fill-rule="evenodd" clip-rule="evenodd" d="M35.0096 46.9636L22.0164 51.6102C20.9289 51.8278 19.871 51.1226 19.6534 50.0351C19.4358 48.9476 20.1411 47.8897 21.2285 47.6721L35.0096 46.9636Z" fill="#F5F5F5"/>
<path d="M66 66L76 76" stroke="#70757D" stroke-width="6" stroke-linecap="round"/>
<circle cx="46.3333" cy="46.3333" r="26.3333" stroke="#70757D" stroke-width="4"/>
</svg>
