<svg width="96" height="96" viewBox="0 0 96 96" fill="none" xmlns="http://www.w3.org/2000/svg">
<rect width="96" height="96" rx="16" fill="#F5F5F5"/>
<path d="M19 42L68 42" stroke="#70757D" stroke-width="4" stroke-linecap="round" stroke-linejoin="round"/>
<path d="M12 70L61 70" stroke="#70757D" stroke-width="4" stroke-linecap="round" stroke-linejoin="round"/>
<path d="M33 28L19 84" stroke="#70757D" stroke-width="4" stroke-linecap="round" stroke-linejoin="round"/>
<path d="M61 28L47 84" stroke="#70757D" stroke-width="4" stroke-linecap="round" stroke-linejoin="round"/>
<rect x="64" y="4" width="28" height="28" rx="14" fill="#101010"/>
<path d="M78.0064 24.1932C77.1087 24.1894 76.3416 23.9527 75.7053 23.483C75.0689 23.0133 74.5821 22.3295 74.245 21.4318C73.9079 20.5341 73.7393 19.4527 73.7393 18.1875C73.7393 16.9261 73.9079 15.8485 74.245 14.9545C74.5859 14.0606 75.0746 13.3788 75.7109 12.9091C76.3511 12.4394 77.1162 12.2045 78.0064 12.2045C78.8965 12.2045 79.6598 12.4413 80.2962 12.9148C80.9325 13.3845 81.4193 14.0663 81.7564 14.9602C82.0973 15.8504 82.2678 16.9261 82.2678 18.1875C82.2678 19.4564 82.0992 20.5398 81.7621 21.4375C81.425 22.3314 80.9382 23.0152 80.3018 23.4886C79.6655 23.9583 78.9003 24.1932 78.0064 24.1932ZM78.0064 22.6761C78.7943 22.6761 79.4098 22.2917 79.853 21.5227C80.3 20.7538 80.5234 19.642 80.5234 18.1875C80.5234 17.2216 80.4212 16.4053 80.2166 15.7386C80.0159 15.0682 79.7261 14.5606 79.3473 14.2159C78.9723 13.8674 78.5253 13.6932 78.0064 13.6932C77.2223 13.6932 76.6068 14.0795 76.1598 14.8523C75.7128 15.625 75.4875 16.7367 75.4837 18.1875C75.4837 19.1572 75.584 19.9773 75.7848 20.6477C75.9893 21.3144 76.2791 21.8201 76.6541 22.1648C77.0291 22.5057 77.4799 22.6761 78.0064 22.6761Z" fill="white"/>
</svg>
